<svg xmlns="http://www.w3.org/2000/svg" width="780" height="440" viewBox="0 0 780 440"><defs><style>.a{fill:#ffe99a;}.b{fill:#ffd943;}.b,.c,.d,.e,.f{stroke:#162020;stroke-linecap:round;stroke-linejoin:round;stroke-width:1.25px;}.c{fill:none;}.d{fill:#fdefcd;}.e{fill:#24e0c5;}.f{fill:#fff;}</style></defs><rect class="a" x="0.0018" y="0.0014" width="780" height="440"/><path class="b" d="M430.6253,362.7019V320.7651a81.3161,81.3161,0,0,1,22.292-55.9376A86.6322,86.6322,0,0,0,380.0179,119.208c-39.3361,4.396-71.2307,35.9488-76.002,75.2411a86.44,86.44,0,0,0,20.54,67.5932c15.4242,17.7525,24.8188,39.9286,24.8189,63.4458V362.702a14.1711,14.1711,0,0,0,14.1711,14.171h52.9088A14.1712,14.1712,0,0,0,430.6253,362.7019Z"/><line class="c" x1="351.0966" y1="318.8312" x2="428.9034" y2="318.8312"/><line class="c" x1="366.0533" y1="338.8947" x2="413.9467" y2="338.8947"/><line class="c" x1="366.0533" y1="358.8369" x2="413.9467" y2="358.8369"/><line class="c" x1="390.8748" y1="100.1166" x2="390.8748" y2="63.127"/><line class="c" x1="455.603" y1="116.1336" x2="474.0978" y2="84.0996"/><line class="c" x1="493.9873" y1="160.9387" x2="526.0213" y2="142.4439"/><line class="c" x1="326.1466" y1="116.1336" x2="307.6518" y2="84.0996"/><line class="c" x1="286.0127" y1="160.9387" x2="253.9787" y2="142.4439"/><path class="d" d="M460.6055,204.06a70.6055,70.6055,0,1,1-70.6041-70.6041A70.6856,70.6856,0,0,1,460.6055,204.06Zm-118.47,0a47.8642,47.8642,0,1,0,47.8656-47.8628A47.9189,47.9189,0,0,0,342.1358,204.06Z"/><circle class="d" cx="389.8136" cy="204.0615" r="34.2078"/><path class="e" d="M390.0407,227.8476l.0073-.0073.0217.0218L408.2582,209.63a11.8262,11.8262,0,0,0,0-16.7246l-.0153-.0138a11.8254,11.8254,0,0,0-16.7094.0138l-1.4855,1.4854-.0073-.0072-.0073.0072-1.4854-1.4854a11.8256,11.8256,0,0,0-16.7095-.0138l-.0152.0138a11.826,11.826,0,0,0,0,16.7246l18.1884,18.2318.0217-.0218Z"/><polygon class="e" points="548.518 258.865 511.81 246.114 529.832 237.863 566.54 250.614 548.518 258.865"/><polygon class="e" points="547.602 261.501 510.894 248.75 519.92 266.397 556.628 279.148 547.602 261.501"/><path class="f" d="M393.2419,203.6022c-.0182-.0079-.0379-.0121-.0563-.02l-.0726-.0252-.0007.0019a2.6335,2.6335,0,1,0-1.7277,4.9737l-.0089.0259L548.1884,263.03l1.7372-5.0015Z"/><polygon class="e" points="516.21 313.345 487.021 287.692 506.825 286.847 536.013 312.5 516.21 313.345"/><polygon class="e" points="514.368 315.441 485.179 289.788 486.883 309.535 516.072 335.189 514.368 315.441"/><path class="f" d="M393.2419,203.6022c-.0139-.0142-.03-.0255-.0447-.0393l-.0578-.0508-.0013.0015a2.6336,2.6336,0,1,0-3.476,3.9549l-.018.0206,124.69,109.5893,3.4952-3.977Z"/><polygon class="e" points="556.423 197.693 517.592 199.183 531.373 184.936 570.204 183.446 556.423 197.693"/><polygon class="e" points="556.53 200.482 517.699 201.972 532.531 215.121 571.362 213.631 556.53 200.482"/><path class="f" d="M391.684,202.7618c-.02-.0007-.04.0025-.06.0023l-.0769.0029,0,.0021a2.6335,2.6335,0,1,0,.2019,5.2613l.001.0274,165.8821-6.3655-.2032-5.2907Z"/><path class="e" d="M313.0744,282.8846H249.2209a4.6722,4.6722,0,0,0-4.6722,4.6722V335.54a4.6722,4.6722,0,0,0,4.6722,4.6722H285.082l11.8948,10.7611-.0643-10.91,16.1619.1489a4.6722,4.6722,0,0,0,4.6722-4.6722V287.5568A4.6722,4.6722,0,0,0,313.0744,282.8846Z"/><line class="c" x1="273.8944" y1="323.1954" x2="304.4566" y2="323.1954"/><line class="c" x1="255.42" y1="323.1954" x2="267.722" y2="323.1954"/><line class="c" x1="255.42" y1="311.5364" x2="304.4566" y2="311.5364"/><line class="c" x1="292.5235" y1="299.8773" x2="304.6969" y2="299.8773"/><line class="c" x1="255.42" y1="299.8773" x2="286.7537" y2="299.8773"/><path class="e" d="M209.1226,197.4792h63.8535a4.6722,4.6722,0,0,1,4.6722,4.6722v47.9835a4.6722,4.6722,0,0,1-4.6722,4.6722h-35.861L225.22,265.5682l.0642-10.91-16.1619.149a4.6722,4.6722,0,0,1-4.6722-4.6722V202.1514A4.6722,4.6722,0,0,1,209.1226,197.4792Z"/><line class="c" x1="248.3026" y1="237.79" x2="217.7405" y2="237.79"/><line class="c" x1="266.7771" y1="237.79" x2="254.4751" y2="237.79"/><line class="c" x1="266.7771" y1="226.1309" x2="217.7405" y2="226.1309"/><line class="c" x1="229.6736" y1="214.4719" x2="217.5001" y2="214.4719"/><line class="c" x1="266.7771" y1="214.4719" x2="235.4434" y2="214.4719"/></svg>